<svg width="50" height="50" viewBox="0 0 50 50" fill="none" xmlns="http://www.w3.org/2000/svg">
<path d="M34.1046 13.8371C34.1046 13.5813 33.8953 13.372 33.6395 13.372H30.4709C30.2965 13.372 30.1337 13.4709 30.0581 13.6278L25.1337 23.4417H24.9419L20.0175 13.6278C19.9789 13.5513 19.92 13.4869 19.8471 13.4418C19.7743 13.3966 19.6904 13.3725 19.6047 13.372H16.3663C16.2907 13.372 16.2152 13.3895 16.1454 13.4302C15.9187 13.5522 15.8373 13.8371 15.9594 14.0581L22 25.1975H18.6861C18.4303 25.1975 18.221 25.4068 18.221 25.6626V27.2382C18.221 27.494 18.4303 27.7033 18.6861 27.7033H23.1047V29.9708H18.6861C18.4303 29.9708 18.221 30.1801 18.221 30.4359V32.0114C18.221 32.2673 18.4303 32.4766 18.6861 32.4766H23.1047V36.1626C23.1047 36.4184 23.314 36.6277 23.5698 36.6277H26.4709C26.7267 36.6277 26.936 36.4184 26.936 36.1626V32.4707H31.3721C31.6279 32.4707 31.8372 32.2614 31.8372 32.0056V30.4301C31.8372 30.1742 31.6279 29.9649 31.3721 29.9649H26.936V27.6975H31.3721C31.6279 27.6975 31.8372 27.4882 31.8372 27.2324V25.6568C31.8372 25.401 31.6279 25.1917 31.3721 25.1917H28.0232L34.0523 14.0522C34.0813 13.9883 34.1046 13.9127 34.1046 13.8371ZM4.41291 24.5464C4.52212 19.2476 6.67866 14.1969 10.4303 10.4534C12.3198 8.5639 14.5175 7.07554 16.9652 6.04066C19.5 4.9709 22.1919 4.42439 24.9651 4.42439C27.7442 4.42439 30.436 4.96509 32.9651 6.04066C35.4127 7.07554 37.6104 8.5639 39.4999 10.4534C40.0813 11.0348 40.622 11.6453 41.122 12.279L38.215 14.5522C38.1458 14.6058 38.0931 14.6778 38.0629 14.76C38.0328 14.8422 38.0265 14.9313 38.0447 15.0169C38.0629 15.1026 38.1049 15.1813 38.1659 15.2441C38.2269 15.3069 38.3044 15.3513 38.3895 15.372L47.5057 17.5987C47.7964 17.6685 48.0813 17.4476 48.0813 17.1511L48.1278 7.76158C48.1278 7.37205 47.6801 7.15112 47.3778 7.39531L44.5987 9.56971C40.0406 3.73835 32.9418 0 24.9709 0C11.3373 0 0.250144 10.936 0.000145383 24.5231C-0.00140638 24.5852 0.00947744 24.6469 0.0321558 24.7047C0.0548342 24.7625 0.0888482 24.8151 0.132193 24.8595C0.175539 24.904 0.227339 24.9393 0.284541 24.9634C0.341742 24.9875 0.403188 24.9999 0.465259 24.9999H3.95361C4.20361 24.9999 4.4071 24.7964 4.41291 24.5464ZM49.5347 24.9999H46.0464C45.7964 24.9999 45.5871 25.2033 45.5813 25.4533C45.4721 30.7521 43.3155 35.8028 39.5639 39.5463C37.6917 41.4263 35.4724 42.9249 33.029 43.959C30.4942 45.0288 27.8023 45.5753 25.0291 45.5753C22.2558 45.5753 19.5582 45.0346 17.0291 43.959C14.5858 42.9249 12.3664 41.4263 10.4943 39.5463C9.91288 38.9649 9.37218 38.3544 8.87219 37.7207L11.7733 35.4475C11.8426 35.3939 11.8953 35.3219 11.9254 35.2397C11.9556 35.1575 11.9619 35.0684 11.9437 34.9828C11.9255 34.8972 11.8834 34.8184 11.8224 34.7556C11.7615 34.6928 11.684 34.6484 11.5989 34.6277L2.48269 32.401C2.19199 32.3312 1.90711 32.5521 1.90711 32.8486L1.8606 42.2498C1.8606 42.6393 2.30827 42.8602 2.6106 42.616L5.38965 40.4416C9.95939 46.2614 17.0582 49.9997 25.0291 49.9997C38.6627 49.9997 49.7499 39.0637 49.9999 25.4766C50.0014 25.4145 49.9905 25.3528 49.9678 25.295C49.9452 25.2373 49.9112 25.1846 49.8678 25.1402C49.8245 25.0957 49.7727 25.0604 49.7155 25.0363C49.6583 25.0122 49.5968 24.9998 49.5347 24.9999Z" fill="#fff"/>
</svg>
