<svg width="66" height="56" viewBox="0 0 66 56" fill="none" xmlns="http://www.w3.org/2000/svg">
<path d="M3.75422 17.0492L15.7738 4.00807C16.0749 3.68741 16.4389 3.43237 16.8432 3.25892C17.2474 3.08546 17.683 2.99734 18.1229 3.00006H47.8771C48.317 2.99734 48.7526 3.08546 49.1568 3.25892C49.5611 3.43237 49.9251 3.68741 50.2262 4.00807L62.2458 17.0492C62.7392 17.5735 63.0095 18.269 62.9997 18.9888C62.9899 19.7087 62.7008 20.3966 62.1933 20.9072L34.125 52.7255C33.9842 52.8851 33.8111 53.013 33.6172 53.1005C33.4232 53.1881 33.2128 53.2334 33 53.2334C32.7872 53.2334 32.5768 53.1881 32.3828 53.1005C32.1889 53.013 32.0158 52.8851 31.875 52.7255L3.80673 20.9072C3.29923 20.3966 3.01005 19.7087 3.00026 18.9888C2.99046 18.269 3.26081 17.5735 3.75422 17.0492V17.0492Z" stroke="white" stroke-width="5" stroke-linecap="round" stroke-linejoin="round"/>
<path d="M21 22.5L33.0001 36.0001L45.0002 22.5" stroke="white" stroke-width="5" stroke-linecap="round" stroke-linejoin="round"/>
</svg>
