<svg width="62" height="62" viewBox="0 0 62 62" fill="none" xmlns="http://www.w3.org/2000/svg">
<path d="M28.8333 37.5662V46.5444H17.6667C17.0942 46.5444 16.5438 46.7688 16.137 47.1702C15.7299 47.5718 15.5 48.118 15.5 48.6889V58.5556C15.5 59.1265 15.7299 59.6726 16.137 60.0743C16.5438 60.4757 17.0942 60.7 17.6667 60.7H44.3333C44.9058 60.7 45.4562 60.4757 45.863 60.0743C46.2701 59.6726 46.5 59.1265 46.5 58.5556V48.6889C46.5 48.118 46.2701 47.5718 45.863 47.1702C45.4562 46.7688 44.9058 46.5444 44.3333 46.5444H33.1667V37.5662C41.015 36.7522 47.5443 31.5686 50.2103 24.5222H52.6667C55.0073 24.5222 57.2533 23.6049 58.9104 21.9699C60.5677 20.3347 61.5 18.1155 61.5 15.8V5.93333C61.5 5.36241 61.2701 4.81625 60.863 4.41462C60.4562 4.01321 59.9058 3.78889 59.3333 3.78889H51.5V2.64444C51.5 2.07352 51.2701 1.52736 50.863 1.12573C50.4562 0.724324 49.9058 0.5 49.3333 0.5H12.6667C12.0942 0.5 11.5438 0.724325 11.137 1.12573L11.4846 1.47808L11.137 1.12573C10.7299 1.52736 10.5 2.07352 10.5 2.64444V3.78889H2.66667C2.09418 3.78889 1.54381 4.01321 1.13698 4.41462C0.729927 4.81625 0.5 5.36241 0.5 5.93333V15.8C0.5 18.1155 1.43231 20.3347 3.0896 21.9699C4.74668 23.6049 6.99274 24.5222 9.33333 24.5222H11.7897C14.4557 31.5686 20.9865 36.7522 28.8333 37.5662ZM14.8333 4.78889H47.1667V17.4444C47.1667 26.2443 39.9352 33.3889 31 33.3889C22.0648 33.3889 14.8333 26.2443 14.8333 17.4444V4.78889ZM52.6667 20.2333H51.5V8.07778H57.1667V15.8C57.1667 16.9736 56.6942 18.1005 55.851 18.9325C55.0076 19.7646 53.8623 20.2333 52.6667 20.2333ZM4.83333 8.07778H10.5V20.2333H9.33333C8.13771 20.2333 6.99238 19.7646 6.14897 18.9325C5.30579 18.1005 4.83333 16.9736 4.83333 15.8V8.07778ZM42.1667 56.4111H19.8333V50.8333H42.1667V56.4111Z" fill="white" stroke="white"/>
</svg>
