<svg width="60" height="54" viewBox="0 0 60 54" fill="none" xmlns="http://www.w3.org/2000/svg">
<path d="M22.2991 15.0836C20.9598 17.144 19.4308 20.201 17.7121 24.2547C17.221 23.2469 16.808 22.435 16.4732 21.8191C16.1384 21.2033 15.6864 20.4922 15.1172 19.6859C14.548 18.8797 13.9788 18.247 13.4096 17.7879C12.8404 17.3288 12.1373 16.9368 11.3002 16.6121C10.4632 16.2874 9.55357 16.125 8.57143 16.125H1.07143C0.758929 16.125 0.502232 16.0242 0.301339 15.8227C0.100446 15.6211 0 15.3635 0 15.05V8.6C0 8.28646 0.100446 8.02891 0.301339 7.82734C0.502232 7.62578 0.758929 7.525 1.07143 7.525H8.57143C14.1518 7.525 18.7277 10.0445 22.2991 15.0836ZM60 41.925C60 42.2385 59.8996 42.4961 59.6987 42.6977L48.9844 53.4477C48.7835 53.6492 48.5268 53.75 48.2143 53.75C47.9241 53.75 47.673 53.6436 47.4609 53.4309C47.2489 53.2181 47.1429 52.9661 47.1429 52.675V46.225C46.4286 46.225 45.4799 46.2306 44.2969 46.2418C43.1138 46.253 42.2098 46.2642 41.5848 46.2754C40.9598 46.2866 40.1451 46.2754 39.1406 46.2418C38.1362 46.2082 37.3438 46.1522 36.7634 46.0738C36.183 45.9954 35.4688 45.8779 34.6205 45.7211C33.7723 45.5643 33.0692 45.3572 32.5112 45.0996C31.9531 44.8421 31.3058 44.5229 30.5692 44.1422C29.8326 43.7615 29.1741 43.3135 28.5938 42.7984C28.0134 42.2833 27.3996 41.6842 26.7522 41.0012C26.1049 40.3181 25.4799 39.5398 24.8772 38.6664C26.1942 36.5836 27.7121 33.5266 29.4308 29.4953C29.9219 30.5031 30.3348 31.315 30.6696 31.9309C31.0045 32.5467 31.4565 33.2578 32.0257 34.0641C32.5949 34.8703 33.1641 35.503 33.7333 35.9621C34.3025 36.4212 35.0056 36.8132 35.8426 37.1379C36.6797 37.4626 37.5893 37.625 38.5714 37.625H47.1429V31.175C47.1429 30.8615 47.2433 30.6039 47.4442 30.4023C47.6451 30.2008 47.9018 30.1 48.2143 30.1C48.4821 30.1 48.75 30.212 49.0179 30.4359L59.6987 41.1523C59.8996 41.3539 60 41.6115 60 41.925ZM60 11.825C60 12.1385 59.8996 12.3961 59.6987 12.5977L48.9844 23.3477C48.7835 23.5492 48.5268 23.65 48.2143 23.65C47.9241 23.65 47.673 23.5436 47.4609 23.3309C47.2489 23.1181 47.1429 22.8661 47.1429 22.575V16.125H38.5714C37.5 16.125 36.529 16.293 35.6585 16.6289C34.7879 16.9648 34.0179 17.4688 33.3482 18.1406C32.6786 18.8125 32.1094 19.5012 31.6406 20.2066C31.1719 20.9121 30.6696 21.7799 30.1339 22.8102C29.4196 24.1987 28.5491 26.1135 27.5223 28.5547C26.875 30.0328 26.3225 31.2758 25.865 32.2836C25.4074 33.2914 24.8047 34.4672 24.0569 35.8109C23.3092 37.1547 22.5949 38.2745 21.9141 39.1703C21.2333 40.0661 20.4074 40.9956 19.4364 41.9586C18.4654 42.9216 17.4609 43.6887 16.423 44.2598C15.385 44.8309 14.1964 45.3012 12.8571 45.6707C11.5179 46.0402 10.0893 46.225 8.57143 46.225H1.07143C0.758929 46.225 0.502232 46.1242 0.301339 45.9227C0.100446 45.7211 0 45.4635 0 45.15V38.7C0 38.3865 0.100446 38.1289 0.301339 37.9273C0.502232 37.7258 0.758929 37.625 1.07143 37.625H8.57143C9.64286 37.625 10.6138 37.457 11.4844 37.1211C12.3549 36.7852 13.125 36.2812 13.7946 35.6094C14.4643 34.9375 15.0335 34.2488 15.5022 33.5434C15.971 32.8379 16.4732 31.9701 17.0089 30.9398C17.7232 29.5513 18.5938 27.6365 19.6205 25.1953C20.2679 23.7172 20.8203 22.4742 21.2779 21.4664C21.7355 20.4586 22.3382 19.2828 23.0859 17.9391C23.8337 16.5953 24.548 15.4755 25.2288 14.5797C25.9096 13.6839 26.7355 12.7544 27.7065 11.7914C28.6775 10.8284 29.6819 10.0613 30.7199 9.49023C31.7578 8.91914 32.9464 8.44883 34.2857 8.0793C35.625 7.70977 37.0536 7.525 38.5714 7.525H47.1429V1.075C47.1429 0.761458 47.2433 0.503906 47.4442 0.302344C47.6451 0.100781 47.9018 0 48.2143 0C48.4821 0 48.75 0.111979 49.0179 0.335938L59.6987 11.0523C59.8996 11.2539 60 11.5115 60 11.825Z" fill="white"/>
</svg>
