<svg width="50" height="50" viewBox="0 0 50 50" fill="none" xmlns="http://www.w3.org/2000/svg">
<path d="M48 0H2C0.89375 0 0 0.89375 0 2V48C0 49.1063 0.89375 50 2 50H48C49.1063 50 50 49.1063 50 48V2C50 0.89375 49.1063 0 48 0ZM45.5 45.5H4.5V4.5H45.5V45.5ZM14.25 35.6875V40.5C14.25 40.775 14.475 41 14.75 41H17.75C18.025 41 18.25 40.775 18.25 40.5V35.6875C17.6187 35.8937 16.95 36 16.25 36C15.55 36 14.8813 35.8875 14.25 35.6875ZM18.25 23.3125V9.5C18.25 9.225 18.025 9 17.75 9H14.75C14.475 9 14.25 9.225 14.25 9.5V23.3125C14.8813 23.1063 15.55 23 16.25 23C16.95 23 17.6187 23.1125 18.25 23.3125ZM14.25 35.6875C14.8813 35.8937 15.55 36 16.25 36C16.95 36 17.6187 35.8875 18.25 35.6875C20.8625 34.8438 22.75 32.3937 22.75 29.5C22.75 26.6063 20.8625 24.1562 18.25 23.3125C17.6187 23.1063 16.95 23 16.25 23C15.55 23 14.8813 23.1125 14.25 23.3125C11.6375 24.1562 9.75 26.6063 9.75 29.5C9.75 32.3937 11.6375 34.8438 14.25 35.6875ZM14.2563 28.4562C14.275 28.4187 14.3 28.3813 14.3188 28.3438V28.3375L14.3937 28.225C14.4 28.2125 14.4062 28.2062 14.4125 28.1937C14.4313 28.1625 14.4563 28.1375 14.475 28.1063C14.4813 28.1 14.4875 28.0875 14.4937 28.0812C14.525 28.0437 14.55 28.0125 14.5812 27.9813L14.6 27.9625L14.675 27.8875L14.7 27.8625C14.7313 27.8312 14.7625 27.8063 14.8 27.775C14.8375 27.7438 14.8687 27.7187 14.9062 27.6937C14.9187 27.6875 14.925 27.6812 14.9375 27.675C14.9688 27.6562 14.9937 27.6312 15.025 27.6125C15.0312 27.6062 15.0437 27.6 15.05 27.5938C15.0875 27.5688 15.125 27.55 15.1688 27.525C15.175 27.5188 15.1875 27.5188 15.1938 27.5125C15.225 27.4938 15.2563 27.4813 15.2938 27.4625L15.3312 27.4437C15.375 27.425 15.4125 27.4062 15.4562 27.3937C15.5 27.375 15.5437 27.3625 15.5875 27.35C15.6 27.3437 15.6125 27.3438 15.625 27.3375C15.6625 27.325 15.6938 27.3188 15.7313 27.3125C15.7438 27.3125 15.75 27.3063 15.7625 27.3063C15.8063 27.2938 15.8562 27.2875 15.9 27.2812C15.9125 27.2812 15.9187 27.2813 15.9312 27.275C15.9688 27.2688 16.0063 27.2688 16.0438 27.2625H16.0812C16.1312 27.2625 16.175 27.2562 16.225 27.2562C16.275 27.2562 16.3188 27.2563 16.3687 27.2625H16.4062C16.4438 27.2625 16.4812 27.2688 16.5187 27.275C16.5312 27.275 16.5375 27.275 16.55 27.2812C16.5938 27.2875 16.6437 27.2938 16.6875 27.3063C16.7 27.3063 16.7062 27.3125 16.7188 27.3125C16.7563 27.3188 16.7938 27.3313 16.825 27.3375C16.8375 27.3438 16.85 27.3437 16.8625 27.35C16.9062 27.3625 16.95 27.375 16.9937 27.3937C17.0375 27.4062 17.075 27.425 17.1187 27.4437L17.1562 27.4625C17.1875 27.475 17.225 27.4938 17.2563 27.5125C17.2625 27.5188 17.275 27.5188 17.2812 27.525C17.3188 27.5438 17.3625 27.5688 17.4 27.5938C17.4062 27.6 17.4187 27.6062 17.425 27.6125C17.4562 27.6312 17.4875 27.65 17.5125 27.675C17.525 27.6812 17.5312 27.6875 17.5438 27.6937C17.5813 27.7187 17.6187 27.75 17.65 27.775C17.6812 27.8 17.7188 27.8312 17.75 27.8625L17.775 27.8875L17.85 27.9625L17.8687 27.9813C17.9 28.0125 17.9312 28.05 17.9562 28.0812C17.9625 28.0875 17.9688 28.1 17.975 28.1063C18 28.1313 18.0188 28.1625 18.0375 28.1937C18.0438 28.2062 18.05 28.2125 18.0562 28.225L18.1313 28.3375C18.1313 28.3375 18.1313 28.3438 18.1375 28.3438C18.3459 28.6934 18.456 29.0929 18.4562 29.5C18.4562 29.875 18.3625 30.2313 18.2 30.5438C18.1813 30.5813 18.1562 30.6187 18.1375 30.6562C18.1375 30.6562 18.1375 30.6625 18.1313 30.6625L18.0562 30.775C18.05 30.7875 18.0438 30.7938 18.0375 30.8063C18.0188 30.8375 17.9937 30.8625 17.975 30.8937C17.9688 30.9 17.9625 30.9125 17.9562 30.9188C17.925 30.9563 17.9 30.9875 17.8687 31.0187L17.85 31.0375L17.775 31.1125L17.75 31.1375C17.7188 31.1688 17.6875 31.1937 17.65 31.225C17.6125 31.2562 17.5813 31.2813 17.5438 31.3063C17.5312 31.3125 17.525 31.3188 17.5125 31.325C17.4813 31.3438 17.4562 31.3688 17.425 31.3875C17.4187 31.3938 17.4062 31.4 17.4 31.4062C17.3625 31.4312 17.325 31.45 17.2812 31.475C17.275 31.4812 17.2625 31.4812 17.2563 31.4875C17.225 31.5062 17.1938 31.5187 17.1562 31.5375L17.1187 31.5563C17.075 31.575 17.0375 31.5938 16.9937 31.6063C16.95 31.625 16.9062 31.6375 16.8625 31.65C16.85 31.6563 16.8375 31.6562 16.825 31.6625C16.7875 31.675 16.7563 31.6812 16.7188 31.6875C16.7062 31.6875 16.7 31.6937 16.6875 31.6937C16.6437 31.7062 16.5938 31.7125 16.55 31.7188C16.5375 31.7188 16.5312 31.7187 16.5187 31.725C16.4812 31.7312 16.4438 31.7312 16.4062 31.7375H16.3687C16.3188 31.7375 16.275 31.7438 16.225 31.7438C16.175 31.7438 16.1312 31.7437 16.0812 31.7375H16.0438C16.0063 31.7375 15.9688 31.7312 15.9312 31.725C15.9187 31.725 15.9125 31.725 15.9 31.7188C15.8562 31.7125 15.8063 31.7062 15.7625 31.6937C15.75 31.6937 15.7438 31.6875 15.7313 31.6875C15.6938 31.6812 15.6562 31.6687 15.625 31.6625C15.6125 31.6562 15.6 31.6563 15.5875 31.65C15.5437 31.6375 15.5 31.625 15.4562 31.6063C15.4125 31.5938 15.375 31.575 15.3312 31.5563L15.2938 31.5375C15.2625 31.525 15.225 31.5062 15.1938 31.4875C15.1875 31.4812 15.175 31.4812 15.1688 31.475C15.1313 31.4562 15.0875 31.4312 15.05 31.4062C15.0437 31.4 15.0312 31.3938 15.025 31.3875C14.9937 31.3688 14.9625 31.35 14.9375 31.325C14.925 31.3188 14.9187 31.3125 14.9062 31.3063C14.8687 31.2813 14.8312 31.25 14.8 31.225C14.7687 31.2 14.7313 31.1688 14.7 31.1375L14.675 31.1125L14.6 31.0375L14.5812 31.0187C14.55 30.9875 14.5187 30.95 14.4937 30.9188C14.4875 30.9125 14.4813 30.9 14.475 30.8937C14.45 30.8687 14.4313 30.8375 14.4125 30.8063C14.4062 30.7938 14.4 30.7875 14.3937 30.775L14.3188 30.6625V30.6562C14.2938 30.6187 14.275 30.5813 14.2563 30.5438C14.0938 30.2313 14 29.875 14 29.5C14 29.125 14.0938 28.7687 14.2563 28.4562ZM31.75 26.6875V40.5C31.75 40.775 31.975 41 32.25 41H35.25C35.525 41 35.75 40.775 35.75 40.5V26.6875C35.1188 26.8937 34.45 27 33.75 27C33.05 27 32.3812 26.8875 31.75 26.6875ZM35.75 14.3125V9.5C35.75 9.225 35.525 9 35.25 9H32.25C31.975 9 31.75 9.225 31.75 9.5V14.3125C32.3812 14.1062 33.05 14 33.75 14C34.45 14 35.1188 14.1125 35.75 14.3125ZM31.75 26.6875C32.3812 26.8937 33.05 27 33.75 27C34.45 27 35.1188 26.8875 35.75 26.6875C38.3625 25.8438 40.25 23.3937 40.25 20.5C40.25 17.6063 38.3625 15.1562 35.75 14.3125C35.1188 14.1062 34.45 14 33.75 14C33.05 14 32.3812 14.1125 31.75 14.3125C29.1375 15.1562 27.25 17.6063 27.25 20.5C27.25 23.3937 29.1375 25.8438 31.75 26.6875ZM31.7562 19.4562C31.775 19.4187 31.8 19.3813 31.8187 19.3438V19.3375L31.8937 19.225C31.9 19.2125 31.9062 19.2063 31.9125 19.1938C31.9312 19.1625 31.9562 19.1375 31.975 19.1063C31.9812 19.1 31.9875 19.0875 31.9938 19.0812C32.025 19.0437 32.05 19.0125 32.0812 18.9813L32.1 18.9625L32.175 18.8875L32.2 18.8625C32.2313 18.8312 32.2625 18.8062 32.3 18.775C32.3375 18.7437 32.3688 18.7188 32.4062 18.6938C32.4188 18.6875 32.425 18.6812 32.4375 18.675C32.4688 18.6562 32.4938 18.6312 32.525 18.6125C32.5312 18.6062 32.5438 18.6 32.55 18.5938C32.5875 18.5688 32.625 18.55 32.6688 18.525C32.675 18.5187 32.6875 18.5188 32.6937 18.5125C32.725 18.4938 32.7563 18.4812 32.7938 18.4625L32.8312 18.4438C32.875 18.425 32.9125 18.4062 32.9562 18.3937C33 18.375 33.0438 18.3625 33.0875 18.35C33.1 18.3438 33.1125 18.3438 33.125 18.3375C33.1625 18.325 33.1938 18.3188 33.2313 18.3125C33.2438 18.3125 33.25 18.3062 33.2625 18.3062C33.3063 18.2937 33.3563 18.2875 33.4 18.2812C33.4125 18.2812 33.4188 18.2812 33.4313 18.275C33.4688 18.2687 33.5063 18.2688 33.5438 18.2625H33.5812C33.6312 18.2625 33.675 18.2563 33.725 18.2563C33.775 18.2563 33.8188 18.2563 33.8688 18.2625H33.9062C33.9437 18.2625 33.9813 18.2687 34.0187 18.275C34.0312 18.275 34.0375 18.275 34.05 18.2812C34.0938 18.2875 34.1437 18.2937 34.1875 18.3062C34.2 18.3062 34.2062 18.3125 34.2188 18.3125C34.2562 18.3188 34.2938 18.3312 34.325 18.3375C34.3375 18.3438 34.35 18.3438 34.3625 18.35C34.4062 18.3625 34.45 18.375 34.4938 18.3937C34.5375 18.4062 34.575 18.425 34.6188 18.4438L34.6562 18.4625C34.6875 18.475 34.725 18.4938 34.7562 18.5125C34.7625 18.5188 34.775 18.5187 34.7812 18.525C34.8187 18.5437 34.8625 18.5688 34.9 18.5938C34.9062 18.6 34.9188 18.6062 34.925 18.6125C34.9562 18.6312 34.9875 18.65 35.0125 18.675C35.025 18.6812 35.0312 18.6875 35.0438 18.6938C35.0812 18.7188 35.1188 18.75 35.15 18.775C35.1813 18.8 35.2188 18.8312 35.25 18.8625L35.275 18.8875L35.35 18.9625L35.3688 18.9813C35.4 19.0125 35.4312 19.05 35.4562 19.0812C35.4625 19.0875 35.4688 19.1 35.475 19.1063C35.5 19.1313 35.5187 19.1625 35.5375 19.1938C35.5437 19.2063 35.55 19.2125 35.5563 19.225L35.6312 19.3375V19.3438C35.8396 19.6934 35.9498 20.0929 35.95 20.5C35.95 20.875 35.8562 21.2313 35.6937 21.5438C35.675 21.5813 35.65 21.6187 35.6312 21.6562V21.6625L35.5563 21.775C35.55 21.7875 35.5437 21.7937 35.5375 21.8062C35.5187 21.8375 35.4937 21.8625 35.475 21.8937C35.4688 21.9 35.4625 21.9125 35.4562 21.9188C35.425 21.9563 35.4 21.9875 35.3688 22.0187L35.35 22.0375L35.275 22.1125L35.25 22.1375C35.2188 22.1688 35.1875 22.1938 35.15 22.225C35.1125 22.2563 35.0812 22.2812 35.0438 22.3062C35.0312 22.3125 35.025 22.3188 35.0125 22.325C34.9813 22.3438 34.9562 22.3688 34.925 22.3875C34.9188 22.3938 34.9062 22.4 34.9 22.4062C34.8625 22.4312 34.825 22.45 34.7812 22.475C34.775 22.4813 34.7625 22.4812 34.7562 22.4875C34.725 22.5062 34.6937 22.5188 34.6562 22.5375L34.6188 22.5562C34.575 22.575 34.5375 22.5938 34.4938 22.6063C34.45 22.625 34.4062 22.6375 34.3625 22.65C34.35 22.6562 34.3375 22.6562 34.325 22.6625C34.2875 22.675 34.2562 22.6812 34.2188 22.6875C34.2062 22.6875 34.2 22.6938 34.1875 22.6938C34.1437 22.7063 34.0938 22.7125 34.05 22.7188C34.0375 22.7188 34.0312 22.7188 34.0187 22.725C33.9813 22.7313 33.9437 22.7312 33.9062 22.7375H33.8688C33.8188 22.7375 33.775 22.7437 33.725 22.7437C33.675 22.7437 33.6312 22.7437 33.5812 22.7375H33.5438C33.5063 22.7375 33.4688 22.7313 33.4313 22.725C33.4188 22.725 33.4125 22.725 33.4 22.7188C33.3563 22.7125 33.3063 22.7063 33.2625 22.6938C33.25 22.6938 33.2438 22.6875 33.2313 22.6875C33.1938 22.6812 33.1562 22.6688 33.125 22.6625C33.1125 22.6562 33.1 22.6562 33.0875 22.65C33.0438 22.6375 33 22.625 32.9562 22.6063C32.9125 22.5938 32.875 22.575 32.8312 22.5562L32.7938 22.5375C32.7625 22.525 32.725 22.5062 32.6937 22.4875C32.6875 22.4812 32.675 22.4813 32.6688 22.475C32.6313 22.4563 32.5875 22.4312 32.55 22.4062C32.5438 22.4 32.5312 22.3938 32.525 22.3875C32.4938 22.3688 32.4625 22.35 32.4375 22.325C32.425 22.3188 32.4188 22.3125 32.4062 22.3062C32.3688 22.2812 32.3312 22.25 32.3 22.225C32.2687 22.2 32.2313 22.1688 32.2 22.1375L32.175 22.1125L32.1 22.0375L32.0812 22.0187C32.05 21.9875 32.0188 21.95 31.9938 21.9188C31.9875 21.9125 31.9812 21.9 31.975 21.8937C31.95 21.8687 31.9312 21.8375 31.9125 21.8062C31.9062 21.7937 31.9 21.7875 31.8937 21.775L31.8187 21.6625V21.6562C31.7937 21.6187 31.775 21.5813 31.7562 21.5438C31.5937 21.2313 31.5 20.875 31.5 20.5C31.5 20.125 31.5937 19.7687 31.7562 19.4562Z" fill="white"/>
</svg>
