<svg width="50" height="56" viewBox="0 0 50 56" fill="none" xmlns="http://www.w3.org/2000/svg">
<path d="M50 13.8081L25 0L0 13.8081V41.4244L25 55.2326L50 41.4244V13.8081ZM25 6.32413L41.4167 15.3823L33.0556 19.9942C31.0278 17.8953 28.1667 16.5698 25 16.5698C21.8333 16.5698 18.9722 17.8953 16.9444 19.9942L8.58333 15.3823L25 6.32413ZM22.2222 47.3895L5.55556 38.1933V20.0494L14.25 24.8546C14 25.7108 13.8889 26.6497 13.8889 27.6163C13.8889 32.7529 17.4167 37.0887 22.2222 38.3038V47.3895ZM19.4444 27.6163C19.4444 24.5785 21.9444 22.093 25 22.093C28.0556 22.093 30.5556 24.5785 30.5556 27.6163C30.5556 30.6541 28.0556 33.1395 25 33.1395C21.9444 33.1395 19.4444 30.6541 19.4444 27.6163ZM27.7778 47.3895V38.3314C32.5833 37.1163 36.1111 32.7805 36.1111 27.6439C36.1111 26.6773 36 25.7384 35.75 24.8546L44.4444 20.0494V38.1933L27.7778 47.3895Z" fill="white"/>
</svg>
