<svg width="141" height="43" viewBox="0 0 141 43" fill="none" xmlns="http://www.w3.org/2000/svg">
<path d="M11.3867 9.69531V17.002H23.8477V26.6309H11.3867V43H0.879883V0.0664062H24.3008V9.69531H11.3867ZM27.6992 7.40137V0.0664062H37.3281V7.40137H27.6992ZM27.6992 43V10.7998H37.3281V43H27.6992ZM81.2529 21.4199C81.2529 35.8066 73.8802 43 59.1348 43H44.125V0.0664062H58.3418C60.4564 0.0664062 62.3066 0.170247 63.8926 0.37793C65.7428 0.623372 67.4137 1.01986 68.9053 1.56738C72.2471 2.77572 75.0413 4.94694 77.2881 8.08105C79.9313 11.7438 81.2529 16.1901 81.2529 21.4199ZM70.293 21.5898C70.293 17.9837 69.4622 15.1517 67.8008 13.0938C65.9883 10.8281 63.3356 9.69531 59.8428 9.69531H55.085V33.3711H59.7861C63.3734 33.3711 66.0544 32.276 67.8291 30.0859C69.4717 28.0846 70.293 25.2526 70.293 21.5898ZM87.3418 7.40137V0.0664062H96.9707V7.40137H87.3418ZM87.3418 43V10.7998H96.9707V43H87.3418ZM131.04 43L114.699 16.8887L114.558 16.9453L114.869 43H104.362V0.0664062H113.821L130.417 27.0557L130.53 26.9424L130.049 0.0664062H140.556V43H131.04Z" fill="white"/>
</svg>
